<?xml version="1.0" encoding="UTF-8"?>
<svg width="19px" height="15px" viewBox="0 0 19 15" version="1.1" xmlns="http://www.w3.org/2000/svg" xmlns:xlink="http://www.w3.org/1999/xlink">
    <title>bag</title>
    <g id="Page-1" stroke="none" stroke-width="1" fill="none" fill-rule="evenodd">
        <g id="Artboard" transform="translate(-33.000000, -174.000000)">
            <g id="bag" transform="translate(33.000000, 174.579908)">
                <path d="M13.8538041,3.92009231 C14.1756483,3.92009231 14.4795528,4.02276343 14.7287107,4.20167589 C14.9778686,4.38058835 15.17228,4.63574215 15.2751381,4.94070754 L15.2751381,4.94070754 L17.6360846,11.9407075 C17.768463,12.3331981 17.729221,12.7421885 17.5587617,13.086151 C17.3883025,13.4301134 17.0866259,13.7090478 16.6941354,13.8414263 L16.6941354,13.8414263 L2.71564566,13.9200923 C2.3014321,13.9200923 1.9264321,13.7521991 1.65498549,13.4807525 C1.38353888,13.2093059 1.21564566,12.8343059 1.21564566,12.4200923 L1.21564566,12.4200923 L3.45790738,4.97506228 C3.5553688,4.66135356 3.74923465,4.39761107 4.00086001,4.21229575 C4.25248537,4.02698044 4.56187024,3.92009231 4.89036969,3.92009231 L4.89036969,3.92009231 Z" id="Rectangle" stroke="#000000" fill="#FFFFFF"></path>
                <circle id="Oval" fill="#000000" cx="5.75" cy="6.17009231" r="1"></circle>
                <circle id="Oval" fill="#000000" cx="12.75" cy="6.17009231" r="1"></circle>
                <path d="M5.5,3.92009231 C6.33333333,1.30669744 7.66666667,0 9.5,0 C11.3333333,0 12.6666667,1.30669744 13.5,3.92009231" id="Line" stroke="#000000" stroke-linecap="round" stroke-linejoin="round"></path>
            </g>
        </g>
    </g>
</svg>